<svg id="Layer_1" data-name="Layer 1" xmlns="http://www.w3.org/2000/svg" viewBox="0 0 407.62 409.63"><path d="M744.83,966.6c-11.43,20.16-28.35,36-42.53,53.95-9.88,12.52-20.62,24.35-30.58,36.8-15,18.69-34.53,27.15-58,27.22-33.2.1-66.4.43-99.59-.18-12.32-.23-20.58,5.54-28.1,13.85a4.22,4.22,0,0,0-.61,3.2c1.84,9.23-.57,17.06-7.26,23.65q-18,17.78-36.05,35.57c-1.49,1.46-3.25,2.65-4.88,4h-4.78c-2.66-2.36-5.45-4.59-7.95-7.11q-41.3-41.58-82.52-83.25c-6.31-6.37-6.34-9.82-.09-16.11,11-11.13,22.16-22.2,33.13-33.4,6.05-6.17,12.91-10,21.87-9.37a4.51,4.51,0,0,0,3.3-2c20-33.26,50.23-48,88-48.72a99.67,99.67,0,0,1,36.27,6.26,26.62,26.62,0,0,0,8.88,1.58c26.43.12,52.85.25,79.27,0,11.61-.11,21.79,2.55,30.94,13.19.81-1.62,1.18-3.2,2.15-4.21q22.29-23.1,44.69-46.08C697,928.52,705,924.92,714.53,925a31.47,31.47,0,0,1,28.83,19.67,27.84,27.84,0,0,0,1.47,2.74Zm-269.7,119.62a32.31,32.31,0,0,0,2.42-2.18c10.43-11.51,23.36-15.86,38.83-15.6,32.53.53,65.07.2,97.61.14,18.27,0,33.49-6.56,45.2-21.1,11.25-14,23-27.59,34.46-41.36,10.48-12.55,20.9-25.15,31.45-37.65,4.06-4.81,5.9-10.11,4.06-16.24a15.73,15.73,0,0,0-26.56-6.43c-17.3,17.48-34.35,35.21-51.38,52.94a6.93,6.93,0,0,0-1.38,4.59c.41,16.92-12.17,32-28.92,32.67-22.41.85-44.86.53-67.3.52-5.47,0-9-3.67-8.78-8.26s3.51-7.41,9-7.66c1.06,0,2.12,0,3.18,0q28.69,0,57.37,0a42.07,42.07,0,0,0,6.35-.41,15.75,15.75,0,0,0,12.87-17.78c-1.37-8.81-7.76-13.79-18-13.8-28.15,0-56.3,0-84.46-.08a24.89,24.89,0,0,1-8.94-1.39,89.64,89.64,0,0,0-39.76-6.18c-29.31,2-52.6,14.27-68.07,40-1.26,2.09-1.26,3.27.54,5,8.09,7.89,16,15.94,24,23.94Zm-38.25,59c9.77-10.23,20.27-21.14,30.65-32.16,3.75-4,3.46-8.23-.62-12.31q-33.23-33.29-66.53-66.51c-3.73-3.73-7.89-4-11.6-.4-10.84,10.56-21.51,21.3-32.61,32.33Z" transform="translate(-337.2 -755)"/><path d="M657.16,755c5.9,1.85,11.36,4.34,15.18,9.55a26.06,26.06,0,0,1,4.88,16.07q-.06,59.05,0,118.1c0,16-9.8,25.73-25.91,25.75q-53,.09-105.92,0-40.83,0-81.64,0c-13.18,0-22.18-6.55-25.1-18.31a36.51,36.51,0,0,1-.73-8.69c0-37.64.24-75.28-.17-112.92-.15-14,4-24.83,20.22-29.56ZM453.82,835.14v3.94q0,29.52,0,59c0,7.7,2.61,10.35,10.25,10.35q93.38,0,186.75,0c7.85,0,10.41-2.63,10.42-10.59q0-29.32,0-58.65v-4.1Zm207.42-31.95H454.12V818.7H661.24V803.19ZM661,786.77c1-13.54-1-15.79-13.82-15.79H465.58a25.93,25.93,0,0,0-5.15.28c-3.6.71-6,2.91-6.41,6.66-.29,2.85-.06,5.76-.06,8.84Z" transform="translate(-337.2 -755)"/><path d="M519.52,1019.28a7.93,7.93,0,0,1,7.77,7.89,8.1,8.1,0,0,1-7.75,8,8.32,8.32,0,0,1-8.06-8.16A8.16,8.16,0,0,1,519.52,1019.28Z" transform="translate(-337.2 -755)"/><path d="M621.31,892.49c-5,0-10.07.09-15.11,0-5.23-.11-8.7-3.34-8.71-7.87,0-4.28,3.32-7.87,8.25-8q15.51-.35,31,0c5.2.1,8.56,3.65,8.47,8.14s-3.47,7.56-8.81,7.76H621.31Z" transform="translate(-337.2 -755)"/><path d="M573.45,892.41a8,8,0,0,1-7.89-7.78,7.92,7.92,0,1,1,15.84.07A7.94,7.94,0,0,1,573.45,892.41Z" transform="translate(-337.2 -755)"/></svg>