<svg id="Layer_1" data-name="Layer 1" xmlns="http://www.w3.org/2000/svg" viewBox="0 0 417.17 506.43"><path d="M58.53,511a10.36,10.36,0,0,0-2.15-1.5c-4.79-2-6.78-5.59-6.22-10.65s3.94-7.35,8.49-8.36c1.55-.36,3.15-.52,5.36-.87.1-2,.28-4,.28-6V385.92c0-12.49,3.52-16.09,15.79-16.09H155.7c10.93,0,14.84,3.93,14.85,14.88V489.57h31.11V304.21c0-12.44,3.44-15.87,15.89-15.87h76.18c10.2,0,14.21,4,14.21,14.32v187h31.11V242.06c0-12.4,3.54-15.95,15.94-15.95h74c12.88,0,16.33,3.42,16.33,16.09V490.09c3.74,0,6.89-.1,10.05,0,6.36.22,10.45,3,11.5,7.7,1.23,5.5-.66,8.7-7.06,12.08a5.06,5.06,0,0,0-1.08,1.13Z" transform="translate(-50.07 -4.57)" fill="#d46669"/><path d="M434.55,4.58c8.08,3.45,9.32,10.15,9.21,18-.23,18.24,0,36.48-.1,54.72a25.64,25.64,0,0,1-.84,6.86c-2.34,8-10.16,10.38-16.2,4.66-2.95-2.79-5.08-6.43-7.89-10.14-3.51,3.22-5.36,4.79-7.07,6.44q-54.81,54.78-109.59,109.58c-8.05,8-12.1,8-20.22-.08-9.65-9.59-19.31-19.08-28.75-28.88-3.28-3.43-5.29-3.31-8.58,0q-56.71,57-113.73,113.82c-1.38,1.38-2.76,2.79-4.17,4.16-6.84,6.74-11.59,6.8-18.3.12q-14.64-14.49-29.2-29.14c-7.43-7.46-7.44-11.49,0-18.9q75.81-75.87,151.67-151.7c3.28-3.28,6.53-6.61,9.87-9.84,5.53-5.36,10.9-5.47,16.4,0,10.45,10.29,20.85,20.62,31.11,31.11,2.92,3,4.77,3.11,7.78.07Q330.36,70.53,365.28,36c3.46-3.43,3.37-5.71-.19-8.59a42.49,42.49,0,0,1-4.55-4.55c-6-6.43-4.72-12.87,3.22-16.8a16.69,16.69,0,0,0,2.14-1.49ZM391.63,25.87c2.81,6.13.77,10.62-3.38,14.76q-43.87,43.71-87.64,87.55c-6.44,6.43-10.94,6.43-17.4,0C273.43,118.52,263.73,108.73,254,99c-5.21-5.21-5.23-5.21-10.35-.09Q173.35,169.31,103,239.6a19,19,0,0,0-3.32,3.51c-.58,1-1,3-.44,3.63,5.81,6.17,11.8,12.13,18,18.31,2.31-2.14,3.89-3.62,5.37-5.12l116.8-116.79c7.07-7.06,11.54-7,18.66,0,9.65,9.58,19.21,19.22,28.83,28.81,5,5,5,5,10,.09L405,64c4.9-4.91,9.21-11.1,17.83-6.88V25.87Z" transform="translate(-50.07 -4.57)" fill="#d46669"/></svg>