<svg height="512" viewBox="0 0 64 64" width="512" xmlns="http://www.w3.org/2000/svg"><g id="Layer_34" data-name="Layer 34"><path d="m36.22 25.41a2.06 2.06 0 0 0 -1.38.56 2 2 0 0 0 1.43 3.4h1.1a.81.81 0 0 1 .83.78.77.77 0 0 1 -.24.55.84.84 0 0 1 -.59.23h-2.09a.6.6 0 0 0 -.6.6.6.6 0 0 0 .6.6h.94v1a.6.6 0 0 0 1.2 0v-1a2 2 0 0 0 1.38-.57 2 2 0 0 0 .6-1.41 2 2 0 0 0 -2-2h-1.1a.81.81 0 0 1 -.83-.79.74.74 0 0 1 .23-.54.87.87 0 0 1 .6-.24h2.09a.6.6 0 0 0 0-1.2h-.94v-1a.6.6 0 0 0 -1.2 0z"/><path d="m32 3.4a28.59 28.59 0 0 0 -28.6 28.6 28.59 28.59 0 0 0 28.6 28.6 28.59 28.59 0 0 0 28.6-28.6 28.59 28.59 0 0 0 -28.6-28.6zm-7.67 16.81a12.49 12.49 0 0 1 25 .06v.24a.6.6 0 0 1 -1.2 0v-.23a3.37 3.37 0 0 0 -6.73.23.6.6 0 0 1 -1.2 0 3.35 3.35 0 0 0 -2.76-3.3v4.41a7.22 7.22 0 1 1 -1.2 0v-4.45a3.36 3.36 0 0 0 -2.77 3.3.6.6 0 0 1 -.6.6.6.6 0 0 1 -.6-.6 3.36 3.36 0 0 0 -6.72-.24v.24a.6.6 0 1 1 -1.2 0c-.03-.09-.02-.17-.02-.26zm-8.39 27.21h-3.76v-14.42h3.76zm34.88-5.66-13.4 5.72a16.73 16.73 0 0 1 -5.87 1.33 16.56 16.56 0 0 1 -6.24-.94l-3.75-1.32a15.16 15.16 0 0 0 -4.42-.83v-11h3.78a13.21 13.21 0 0 1 6.2 1.54 14.49 14.49 0 0 0 6.76 1.74h2.41a1.79 1.79 0 0 1 1.79 1.8 1.74 1.74 0 0 1 -.64 1.36l-1.26.45h-8a.6.6 0 0 0 -.6.6.6.6 0 0 0 .6.6h8.1l.24-.06 12.6-4.43a1.93 1.93 0 0 1 1.49 0 1.89 1.89 0 0 1 1.06 1.07 1.92 1.92 0 0 1 -.85 2.37z"/></g></svg>