<svg id="Layer_1" data-name="Layer 1" xmlns="http://www.w3.org/2000/svg" viewBox="0 0 493.35 431.55"><path d="M502.61,446c-2.8,9.74-7.35,18.47-17.18,22.45a47.22,47.22,0,0,1-17.21,3.42q-142.35.32-284.71.15H43.8c-22.07,0-34.51-12.52-34.51-34.71q0-72.27,0-144.53v-5.52c1.91-.09,3.46-.23,5-.23q119.23,0,238.46,0c2.61,0,4.72.07,6.52,2.74,21.56,31.92,50.94,55.3,83.26,75.34,8.82,5.47,17.38,11.54,28,13.53a45,45,0,0,0,31.6-5.23c29.5-17,57.29-36.21,80.12-61.77,6.18-6.92,11.48-14.63,17.26-21.92a21.71,21.71,0,0,1,3.1-2.68ZM117.25,348.71c-10,0-19.9-.07-29.84,0C77.89,348.81,71.08,355.2,71,364c-.1,8.95,6.77,15.53,16.57,15.57q29.6.11,59.2,0c9.83,0,16.7-6.54,16.66-15.48s-6.94-15.25-16.82-15.32S127,348.71,117.25,348.71Z" transform="translate(-9.25 -40.5)" fill="#3779b3"/><path d="M502.61,181.06c-.9,7-1.81,13.93-2.69,20.91-5.56,44-26.4,79.52-59.87,108-16.05,13.69-33.59,25.23-51.76,35.87-5.77,3.37-11.5,3.77-17.33.37-25.75-15-50.19-31.74-70.54-53.82-23.22-25.2-36.7-55-41.6-88.76S256.57,136,256,102.19c-.12-7.85,4.75-12.46,11.7-15.42q42.93-18.26,85.77-36.7c6.19-2.65,12.42-5.21,18.57-7.94A16.61,16.61,0,0,1,386,42q53,22.77,106.09,45.45c5.43,2.32,8.62,6.38,10.48,11.76ZM365.09,199.18c-1.33-1.89-2.27-3.16-3.15-4.48-5.26-7.86-10.42-15.8-15.79-23.59-4.15-6-10.41-8.49-16.64-6.88-10.78,2.78-15.19,14.31-8.86,24,9.44,14.52,19.14,28.87,28.77,43.26,8,12,19.32,12.45,28.3,1.23l33.68-42.09c8.62-10.77,17.38-21.44,25.79-32.37,7.53-9.78,2.78-22.83-9-25-6.92-1.29-12,1.9-16.2,7.2C396.57,159.91,381,179.29,365.09,199.18Z" transform="translate(-9.25 -40.5)" fill="#3779b3"/><path d="M225.15,133.05c-.21,30.94-.74,61.6,6.53,92H9.63c-.11-1.14-.33-2.36-.33-3.57,0-18.78-.1-37.56,0-56.34.12-19,13.11-32.22,32.07-32.25q90.53-.15,181.06,0C223.07,132.89,223.71,133,225.15,133.05Z" transform="translate(-9.25 -40.5)" fill="#3779b3"/></svg>