<svg id="Layer_1" data-name="Layer 1" xmlns="http://www.w3.org/2000/svg" viewBox="0 0 807.82 1071.3">
  <path d="M540.68,1116.24H203.56c-42,0-64.59-22.59-64.59-64.61,0-114.46-.49-228.93.18-343.38,1-167.49,125.5-316.92,290-349.25,54.6-10.73,109.78-8.68,164.81-6.63,170.78,6.34,314.23,132.7,342.18,301.24a420.75,420.75,0,0,1,5.64,66.58c.56,110.62.28,221.24.25,331.87,0,41.08-23.13,64.17-64.21,64.18Zm-.72-94.91C687.35,1021.84,808.32,902,809,754.83c.7-148.66-119.12-270-267.25-270.68C393.29,483.49,272.56,603.36,272,752S390.85,1020.82,540,1021.33Z" transform="translate(-138.8 -44.95)" fill="#8b334c"/>
  <path d="M380,80.36c12.78-9.19,24.91-18.43,37.57-26.89,19.6-13.09,42.68-11,61.63,5.67,20.19,17.79,43.27,26.12,70.17,23.69,19.06-1.71,35.53-9.28,50-21.65,24.92-21.37,48-21.31,73.1-.78,8.81,7.21,18.89,12.86,29.06,19.68-7.05,14.17-14.29,28.77-21.57,43.36-17.28,34.61-34.72,69.15-51.75,103.89-2.86,5.86-6.28,7.95-12.77,7.92-49.9-.25-99.81,0-149.72-.39-4,0-10-2.54-11.59-5.68-24.9-48.72-49.23-97.73-73.65-146.69A5.8,5.8,0,0,1,380,80.36Z" transform="translate(-138.8 -44.95)" fill="#8b334c"/>
  <path d="M694.55,311.56c-1.52-15.81-2.95-30.75-4.62-48.14,9.59-.74,21.18-2.46,32.76-2.35,27.24.26,45.71-15.55,48.59-42.68,4.49-42.35,40.33-73.3,82.87-72.9,12.43.11,24.89-3.2,40.48-5.38l20.68,24.32c-16.08,14.15-34.36,18.68-54.87,18.93a82.28,82.28,0,0,0-32,6.63c-11.52,5.18-18,16.29-20.07,29-7,42.18-17.91,57.11-59.17,77.72,6.59.42,10.42,1.32,14,.77,13-2,23.22-8.42,31.33-18.93,29.67-38.47,72.41-45.69,113.8-20.4,7.42,4.54,16.66,6.91,25.37,8.22,6.12.92,8.41,2.52,8.93,8.54.57,6.56,2.16,13.05,3.54,19.51,1.34,6.22-.84,9.07-7.32,9.34a83,83,0,0,1-48.67-13c-27.15-17.12-48.21-13.32-68,12.21C797.6,334.75,755.83,343.83,720,325.14,710.84,320.34,701.73,315.39,694.55,311.56Z" transform="translate(-138.8 -44.95)" fill="#8b334c"/>
  <path d="M541.82,275.17c30.31,0,60.62-.06,90.92,0,13.78,0,21.62,6.92,21.49,18.51-.12,11.43-8.14,18.42-21.88,18.44q-92,.14-183.93,0c-13.43,0-22.09-7.36-22.34-18.33-.26-11.36,8.46-18.6,22.73-18.63Q495.31,275.11,541.82,275.17Z" transform="translate(-138.8 -44.95)" fill="#8b334c"/>
  <path d="M769.16,752.72c.25,126.48-101.82,229.09-228.29,229.49C415,982.62,311.6,879.82,311.08,753.74S413,524.47,539.27,524.16C666.81,523.86,768.91,625.37,769.16,752.72Z" transform="translate(-138.8 -44.95)" fill="#8b334c"/>
</svg>
