<svg id="Layer_1" data-name="Layer 1" xmlns="http://www.w3.org/2000/svg" viewBox="0 0 512 450.75"><path d="M.23,160.23v-4c2.47-12.42,11.32-18.43,22.28-22.6,5.9-2.23,11.54-5.12,17.32-7.69l215.4-95.71h2c4,1.4,8.17,2.6,12,4.4q113.94,51.15,228,102.44c7.5,3.37,12.41,8.72,14,16.91a10.51,10.51,0,0,0,1,2.25v4C504.55,178.92,501.39,181,480.46,181H58c-11.67,0-23.34.08-35,0A22.38,22.38,0,0,1,1.52,164,34.54,34.54,0,0,0,.23,160.23Z" transform="translate(-0.23 -30.23)" fill="#34805a"/><path d="M58.71,435.55v-6.83q0-98.48.1-197c0-5-1-7.08-6.48-6.91a10.53,10.53,0,0,1-10.78-10.28,4.34,4.34,0,0,1,0-.51c0-5.66,4.27-10.15,10.33-10.74,2.15-.21,4.32-.23,6.49-.23h395.4a60.33,60.33,0,0,1,7.48.35,11,11,0,0,1,9.55,10.5c.11,5-4.13,10.07-9.26,10.9a21.77,21.77,0,0,1-4.49.2c-2.82-.15-3.93,1.23-3.84,3.91v199c0,8.64.2,7.5,7,7.71,12.76.41,22.09,10.43,22,23.08s-9.68,22.26-22.64,22.28q-118.71.1-237.44,0H53.62c-12.45,0-21.42-7.42-23.28-18.93-2.23-13.78,7.65-25.84,21.74-26.51C54,435.47,56,435.55,58.71,435.55Zm46.05-.26c1.91.09,3.38.23,4.86.23,20.16,0,40.32-.1,60.47.1,4.24,0,5.34-1.41,5.33-5.45q-.13-99.72,0-199.42c0-4.87-1.83-5.8-6.16-5.77-19.49.18-39,.07-58.47.08-6.51,0-6.55,0-6.55,6.74V429.22C104.29,431.17,104.58,433.11,104.76,435.29Zm116.38-.06c2,.11,3.61.28,5.23.29,19.81,0,39.63-.14,59.45.12,4.7.06,5.79-1.44,5.78-5.92q-.19-99.42,0-198.84c0-4.62-1.33-6-5.91-5.91q-29.22.33-58.45,0c-4.86-.06-6.51,1-6.49,6.29.2,66.11.13,132.22.14,198.34C220.9,431.37,221.05,433.15,221.14,435.23Zm186.2.3c.14-2,.29-3.19.29-4.34q0-100.68.08-201.33c0-3.72-1.14-4.89-4.84-4.86q-30.48.21-60.95,0c-4.08,0-5,1.52-5,5.29q.12,100.17,0,200.33c0,4.06,1.39,5,5.2,5,18.15-.16,36.3-.07,54.45-.07Z" transform="translate(-0.23 -30.23)" fill="#34805a"/></svg>